999
dxfrw 0.6.3
  0
SECTION
  2
HEADER
  9
$ACADVER
  1
AC1021
  9
$DWGCODEPAGE
  3
ANSI_1252
  9
$INSBASE
 10
0
 20
0
 30
0
  9
$EXTMIN
 10
115.4
 20
114
 30
0
  9
$EXTMAX
 10
1217.6
 20
1018.247458648682
 30
0
  9
$LIMMIN
 10
0
 20
0
  9
$LIMMAX
 10
420
 20
297
  9
$ORTHOMODE
 70
    0
  9
$REGENMODE
 70
    1
  9
$FILLMODE
 70
    1
  9
$QTEXTMODE
 70
    0
  9
$MIRRTEXT
 70
    0
  9
$LTSCALE
 40
1
  9
$ATTMODE
 70
    0
  9
$TEXTSIZE
 40
2.5
  9
$TRACEWID
 40
15.68
  9
$TEXTSTYLE
  7
STANDARD
  9
$CLAYER
  8
0
  9
$CELTYPE
  6
BYLAYER
  9
$CECOLOR
 62
  256
  9
$CELTSCALE
 40
1
  9
$DISPSILH
 70
    0
  9
$DIMSCALE
 40
2.5
  9
$DIMASZ
 40
2.5
  9
$DIMEXO
 40
0.625
  9
$DIMDLI
 40
3.75
  9
$DIMRND
 40
0
  9
$DIMDLE
 40
0
  9
$DIMEXE
 40
1.25
  9
$DIMTP
 40
0
  9
$DIMTM
 40
0
  9
$DIMTXT
 40
2.5
  9
$DIMCEN
 40
2.5
  9
$DIMTSZ
 40
0
  9
$DIMTOL
 70
    0
  9
$DIMLIM
 70
    0
  9
$DIMTIH
 70
    0
  9
$DIMTOH
 70
    0
  9
$DIMSE1
 70
    0
  9
$DIMSE2
 70
    0
  9
$DIMTAD
 70
    1
  9
$DIMZIN
 70
    8
  9
$DIMBLK
  1

  9
$DIMASO
 70
    1
  9
$DIMSHO
 70
    1
  9
$DIMPOST
  1

  9
$DIMAPOST
  1

  9
$DIMALT
 70
    0
  9
$DIMALTD
 70
    3
  9
$DIMALTF
 40
0.03937
  9
$DIMLFAC
 40
1
  9
$DIMTOFL
 70
    1
  9
$DIMTVP
 40
0
  9
$DIMTIX
 70
    0
  9
$DIMSOXD
 70
    0
  9
$DIMSAH
 70
    0
  9
$DIMBLK1
  1

  9
$DIMBLK2
  1

  9
$DIMSTYLE
  2
Standard
  9
$DIMCLRD
 70
    0
  9
$DIMCLRE
 70
    0
  9
$DIMCLRT
 70
    0
  9
$DIMTFAC
 40
1
  9
$DIMGAP
 40
0.625
  9
$DIMJUST
 70
    0
  9
$DIMSD1
 70
    0
  9
$DIMSD2
 70
    0
  9
$DIMTOLJ
 70
    0
  9
$DIMTZIN
 70
    8
  9
$DIMALTZ
 70
    0
  9
$DIMALTTZ
 70
    0
  9
$DIMUPT
 70
    0
  9
$DIMDEC
 70
    2
  9
$DIMTDEC
 70
    2
  9
$DIMALTU
 70
    2
  9
$DIMALTTD
 70
    3
  9
$DIMTXSTY
  7
STANDARD
  9
$DIMAUNIT
 70
    0
  9
$DIMADEC
 70
    0
  9
$DIMALTRND
 40
0
  9
$DIMAZIN
 70
    0
  9
$DIMDSEP
 70
   44
  9
$DIMATFIT
 70
    3
  9
$DIMFRAC
 70
    0
  9
$DIMLDRBLK
  1
STANDARD
  9
$DIMLUNIT
 70
    2
  9
$DIMLWD
 70
   -2
  9
$DIMLWE
 70
   -2
  9
$DIMTMOVE
 70
    0
  9
$DIMFXL
 40
1
  9
$DIMFXLON
 70
    0
  9
$DIMJOGANG
 40
0.7854
  9
$DIMTFILL
 70
    0
  9
$DIMTFILLCLR
 70
    0
  9
$DIMARCSYM
 70
    0
  9
$DIMLTYPE
  6

  9
$DIMLTEX1
  6

  9
$DIMLTEX2
  6

  9
$LUNITS
 70
    2
  9
$LUPREC
 70
    4
  9
$SKETCHINC
 40
1
  9
$FILLETRAD
 40
0
  9
$AUNITS
 70
    0
  9
$AUPREC
 70
    2
  9
$MENU
  1
.
  9
$ELEVATION
 40
0
  9
$PELEVATION
 40
0
  9
$THICKNESS
 40
0
  9
$LIMCHECK
 70
    0
  9
$CHAMFERA
 40
0
  9
$CHAMFERB
 40
0
  9
$CHAMFERC
 40
0
  9
$CHAMFERD
 40
0
  9
$SKPOLY
 70
    0
  9
$USRTIMER
 70
    1
  9
$ANGBASE
 50
0
  9
$ANGDIR
 70
    0
  9
$PDMODE
 70
   34
  9
$PDSIZE
 40
0
  9
$PLINEWID
 40
0
  9
$SPLFRAME
 70
    0
  9
$SPLINETYPE
 70
    2
  9
$SPLINESEGS
 70
    8
  9
$HANDSEED
  5
20000
  9
$SURFTAB1
 70
    6
  9
$SURFTAB2
 70
    6
  9
$SURFTYPE
 70
    6
  9
$SURFU
 70
    6
  9
$SURFV
 70
    6
  9
$UCSBASE
  2

  9
$UCSNAME
  2

  9
$UCSORG
 10
0
 20
0
 30
0
  9
$UCSXDIR
 10
1
 20
0
 30
0
  9
$UCSYDIR
 10
0
 20
1
 30
0
  9
$UCSORTHOREF
  2

  9
$UCSORTHOVIEW
 70
    0
  9
$UCSORGTOP
 10
0
 20
0
 30
0
  9
$UCSORGBOTTOM
 10
0
 20
0
 30
0
  9
$UCSORGLEFT
 10
0
 20
0
 30
0
  9
$UCSORGRIGHT
 10
0
 20
0
 30
0
  9
$UCSORGFRONT
 10
0
 20
0
 30
0
  9
$UCSORGBACK
 10
0
 20
0
 30
0
  9
$PUCSBASE
  2

  9
$PUCSNAME
  2

  9
$PUCSORG
 10
0
 20
0
 30
0
  9
$PUCSXDIR
 10
1
 20
0
 30
0
  9
$PUCSYDIR
 10
0
 20
1
 30
0
  9
$PUCSORTHOREF
  2

  9
$PUCSORTHOVIEW
 70
    0
  9
$PUCSORGTOP
 10
0
 20
0
 30
0
  9
$PUCSORGBOTTOM
 10
0
 20
0
 30
0
  9
$PUCSORGLEFT
 10
0
 20
0
 30
0
  9
$PUCSORGRIGHT
 10
0
 20
0
 30
0
  9
$PUCSORGFRONT
 10
0
 20
0
 30
0
  9
$PUCSORGBACK
 10
0
 20
0
 30
0
  9
$USERI1
 70
    0
  9
$USERI2
 70
    0
  9
$USERI3
 70
    0
  9
$USERI4
 70
    0
  9
$USERI5
 70
    0
  9
$USERR1
 40
0
  9
$USERR2
 40
0
  9
$USERR3
 40
0
  9
$USERR4
 40
0
  9
$USERR5
 40
0
  9
$WORLDVIEW
 70
    1
  9
$SHADEDGE
 70
    3
  9
$SHADEDIF
 70
   70
  9
$TILEMODE
 70
    1
  9
$MAXACTVP
 70
   64
  9
$PINSBASE
 10
0
 20
0
 30
0
  9
$PLIMCHECK
 70
    0
  9
$PEXTMIN
 10
0
 20
0
 30
0
  9
$PEXTMAX
 10
0
 20
0
 30
0
  9
$GRIDMODE
 70
    0
  9
$SNAPSTYLE
 70
    0
  9
$PLIMMIN
 10
0
 20
0
  9
$PLIMMAX
 10
210
 20
297
  9
$UNITMODE
 70
    0
  9
$VISRETAIN
 70
    1
  9
$PLINEGEN
 70
    0
  9
$PSLTSCALE
 70
    1
  9
$TREEDEPTH
 70
 3020
  9
$CMLSTYLE
  2
Standard
  9
$CMLJUST
 70
    0
  9
$CMLSCALE
 40
20
  9
$PROXYGRAPHICS
 70
    1
  9
$MEASUREMENT
 70
    1
  9
$CELWEIGHT
370
   -1
  9
$ENDCAPS
280
    0
  9
$JOINSTYLE
280
    0
  9
$LWDISPLAY
290
    0
  9
$INSUNITS
 70
    0
  9
$HYPERLINKBASE
  1

  9
$STYLESHEET
  1

  9
$XEDIT
290
    1
  9
$CEPSNTYPE
380
    0
  9
$PSTYLEMODE
290
    1
  9
$EXTNAMES
290
    1
  9
$PSVPSCALE
 40
1
  9
$OLESTARTUP
290
    0
  9
$SORTENTS
280
  127
  9
$INDEXCTL
280
    0
  9
$HIDETEXT
280
    1
  9
$XCLIPFRAME
290
    0
  9
$HALOGAP
280
    0
  9
$OBSCOLOR
 70
  257
  9
$OBSLTYPE
280
    0
  9
$INTERSECTIONDISPLAY
280
    0
  9
$INTERSECTIONCOLOR
 70
  257
  9
$DIMASSOC
280
    1
  9
$PROJECTNAME
  1

  9
$CAMERADISPLAY
290
    0
  9
$LENSLENGTH
 40
50
  9
$CAMERAHEIGHT
 40
0
  9
$STEPSPERSEC
 40
2
  9
$STEPSIZE
 40
50
  9
$3DDWFPREC
 40
2
  9
$PSOLWIDTH
 40
5
  9
$PSOLHEIGHT
 40
80
  9
$LOFTANG1
 40
1.570796326794897
  9
$LOFTANG2
 40
1.570796326794897
  9
$LOFTMAG1
 40
0
  9
$LOFTMAG2
 40
0
  9
$LOFTPARAM
 70
    7
  9
$LOFTNORMALS
280
    1
  9
$LATITUDE
 40
1
  9
$LONGITUDE
 40
1
  9
$NORTHDIRECTION
 40
0
  9
$TIMEZONE
 70
-8000
  9
$LIGHTGLYPHDISPLAY
280
    1
  9
$TILEMODELIGHTSYNCH
280
    1
  9
$SOLIDHIST
280
    1
  9
$SHOWHIST
280
    1
  9
$DWFFRAME
280
    2
  9
$DGNFRAME
280
    0
  9
$REALWORLDSCALE
290
    1
  9
$INTERFERECOLOR
 62
    1
  9
$CSHADOW
280
    0
  9
$SHADOWPLANELOCATION
 40
0
  0
ENDSEC
  0
SECTION
  2
CLASSES
  0
ENDSEC
  0
SECTION
  2
TABLES
  0
TABLE
  2
VPORT
  5
8
330
0
100
AcDbSymbolTable
 70
    1
  0
VPORT
  5
31
330
2
100
AcDbSymbolTableRecord
100
AcDbViewportTableRecord
  2
*ACTIVE
 70
    0
 10
0
 20
0
 11
1
 21
1
 12
1551.660900393487
 22
738.8861430445178
 13
0
 23
0
 14
10
 24
10
 15
10
 25
10
 16
0
 26
0
 36
1
 17
0
 27
0
 37
0
 40
2066.242321442348
 41
1.9757343550447
 42
50
 43
0
 44
0
 50
0
 51
0
 71
    0
 72
  100
 73
    1
 74
    3
 75
    0
 76
    0
 77
    0
 78
    0
281
    0
 65
    1
110
0
120
0
130
0
111
1
121
0
131
0
112
0
122
1
132
0
 79
    0
146
0
348
10020
 60
    7
 61
    5
292
1
282
    1
141
0
142
0
 63
  250
421
3358443
  0
ENDTAB
  0
TABLE
  2
LTYPE
  5
5
330
0
100
AcDbSymbolTable
 70
    4
  0
LTYPE
  5
14
330
5
100
AcDbSymbolTableRecord
100
AcDbLinetypeTableRecord
  2
ByBlock
 70
    0
  3

 72
   65
 73
    0
 40
0
  0
LTYPE
  5
15
330
5
100
AcDbSymbolTableRecord
100
AcDbLinetypeTableRecord
  2
ByLayer
 70
    0
  3

 72
   65
 73
    0
 40
0
  0
LTYPE
  5
16
330
5
100
AcDbSymbolTableRecord
100
AcDbLinetypeTableRecord
  2
Continuous
 70
    0
  3
Solid line
 72
   65
 73
    0
 40
0
  0
LTYPE
  5
32
330
5
100
AcDbSymbolTableRecord
100
AcDbLinetypeTableRecord
  2
DOT
 70
    0
  3
Dot . . . . . . . . . . . . . . . . . . . . . .
 72
   65
 73
    2
 40
6.35
 49
0
 74
    0
 49
-6.35
 74
    0
  0
LTYPE
  5
33
330
5
100
AcDbSymbolTableRecord
100
AcDbLinetypeTableRecord
  2
DOTTINY
 70
    0
  3
Dot (.15x) .....................................
 72
   65
 73
    2
 40
0.9525
 49
0
 74
    0
 49
-0.9525
 74
    0
  0
LTYPE
  5
34
330
5
100
AcDbSymbolTableRecord
100
AcDbLinetypeTableRecord
  2
DOT2
 70
    0
  3
Dot (.5x) .....................................
 72
   65
 73
    2
 40
3.175
 49
0
 74
    0
 49
-3.175
 74
    0
  0
LTYPE
  5
35
330
5
100
AcDbSymbolTableRecord
100
AcDbLinetypeTableRecord
  2
DOTX2
 70
    0
  3
Dot (2x) .  .  .  .  .  .  .  .  .  .  .  .  .
 72
   65
 73
    2
 40
12.7
 49
0
 74
    0
 49
-12.7
 74
    0
  0
LTYPE
  5
36
330
5
100
AcDbSymbolTableRecord
100
AcDbLinetypeTableRecord
  2
DASHED
 70
    0
  3
Dashed _ _ _ _ _ _ _ _ _ _ _ _ _ _ _ _ _
 72
   65
 73
    2
 40
19.05
 49
12.7
 74
    0
 49
-6.35
 74
    0
  0
LTYPE
  5
37
330
5
100
AcDbSymbolTableRecord
100
AcDbLinetypeTableRecord
  2
DASHEDTINY
 70
    0
  3
Dashed (.15x) _ _ _ _ _ _ _ _ _ _ _ _ _ _ _ _ _
 72
   65
 73
    2
 40
2.8575
 49
1.905
 74
    0
 49
-0.9525
 74
    0
  0
LTYPE
  5
38
330
5
100
AcDbSymbolTableRecord
100
AcDbLinetypeTableRecord
  2
DASHED2
 70
    0
  3
Dashed (.5x) _ _ _ _ _ _ _ _ _ _ _ _ _ _ _ _ _
 72
   65
 73
    2
 40
9.524999999999999
 49
6.35
 74
    0
 49
-3.175
 74
    0
  0
LTYPE
  5
39
330
5
100
AcDbSymbolTableRecord
100
AcDbLinetypeTableRecord
  2
DASHEDX2
 70
    0
  3
Dashed (2x) ____  ____  ____  ____  ____  ___
 72
   65
 73
    2
 40
38.09999999999999
 49
25.4
 74
    0
 49
-12.7
 74
    0
  0
LTYPE
  5
3A
330
5
100
AcDbSymbolTableRecord
100
AcDbLinetypeTableRecord
  2
DASHDOT
 70
    0
  3
Dash dot __ . __ . __ . __ . __ . __ . __ . __
 72
   65
 73
    4
 40
25.4
 49
12.7
 74
    0
 49
-6.35
 74
    0
 49
0
 74
    0
 49
-6.35
 74
    0
  0
LTYPE
  5
3B
330
5
100
AcDbSymbolTableRecord
100
AcDbLinetypeTableRecord
  2
DASHDOTTINY
 70
    0
  3
Dash dot (.15x) _._._._._._._._._._._._._._._.
 72
   65
 73
    4
 40
3.81
 49
1.905
 74
    0
 49
-0.9525
 74
    0
 49
0
 74
    0
 49
-0.9525
 74
    0
  0
LTYPE
  5
3C
330
5
100
AcDbSymbolTableRecord
100
AcDbLinetypeTableRecord
  2
DASHDOT2
 70
    0
  3
Dash dot (.5x) _._._._._._._._._._._._._._._.
 72
   65
 73
    4
 40
12.7
 49
6.35
 74
    0
 49
-3.175
 74
    0
 49
0
 74
    0
 49
-3.175
 74
    0
  0
LTYPE
  5
3D
330
5
100
AcDbSymbolTableRecord
100
AcDbLinetypeTableRecord
  2
DASHDOTX2
 70
    0
  3
Dash dot (2x) ____  .  ____  .  ____  .  ___
 72
   65
 73
    4
 40
50.8
 49
25.4
 74
    0
 49
-12.7
 74
    0
 49
0
 74
    0
 49
-12.7
 74
    0
  0
LTYPE
  5
3E
330
5
100
AcDbSymbolTableRecord
100
AcDbLinetypeTableRecord
  2
DIVIDE
 70
    0
  3
Divide ____ . . ____ . . ____ . . ____ . . ____
 72
   65
 73
    6
 40
31.75
 49
12.7
 74
    0
 49
-6.35
 74
    0
 49
0
 74
    0
 49
-6.35
 74
    0
 49
0
 74
    0
 49
-6.35
 74
    0
  0
LTYPE
  5
3F
330
5
100
AcDbSymbolTableRecord
100
AcDbLinetypeTableRecord
  2
DIVIDETINY
 70
    0
  3
Divide (.15x) __..__..__..__..__..__..__..__.._
 72
   65
 73
    6
 40
4.7625
 49
1.905
 74
    0
 49
-0.9525
 74
    0
 49
0
 74
    0
 49
-0.9525
 74
    0
 49
0
 74
    0
 49
-0.9525
 74
    0
  0
LTYPE
  5
40
330
5
100
AcDbSymbolTableRecord
100
AcDbLinetypeTableRecord
  2
DIVIDE2
 70
    0
  3
Divide (.5x) __..__..__..__..__..__..__..__.._
 72
   65
 73
    6
 40
15.875
 49
6.35
 74
    0
 49
-3.175
 74
    0
 49
0
 74
    0
 49
-3.175
 74
    0
 49
0
 74
    0
 49
-3.175
 74
    0
  0
LTYPE
  5
41
330
5
100
AcDbSymbolTableRecord
100
AcDbLinetypeTableRecord
  2
DIVIDEX2
 70
    0
  3
Divide (2x) ________  .  .  ________  .  .  _
 72
   65
 73
    6
 40
63.5
 49
25.4
 74
    0
 49
-12.7
 74
    0
 49
0
 74
    0
 49
-12.7
 74
    0
 49
0
 74
    0
 49
-12.7
 74
    0
  0
LTYPE
  5
42
330
5
100
AcDbSymbolTableRecord
100
AcDbLinetypeTableRecord
  2
BORDER
 70
    0
  3
Border __ __ . __ __ . __ __ . __ __ . __ __ .
 72
   65
 73
    6
 40
44.45
 49
12.7
 74
    0
 49
-6.35
 74
    0
 49
12.7
 74
    0
 49
-6.35
 74
    0
 49
0
 74
    0
 49
-6.35
 74
    0
  0
LTYPE
  5
43
330
5
100
AcDbSymbolTableRecord
100
AcDbLinetypeTableRecord
  2
BORDERTINY
 70
    0
  3
Border (.15x) __.__.__.__.__.__.__.__.__.__.__.
 72
   65
 73
    6
 40
6.6675
 49
1.905
 74
    0
 49
-0.9525
 74
    0
 49
1.905
 74
    0
 49
-0.9525
 74
    0
 49
0
 74
    0
 49
-0.9525
 74
    0
  0
LTYPE
  5
44
330
5
100
AcDbSymbolTableRecord
100
AcDbLinetypeTableRecord
  2
BORDER2
 70
    0
  3
Border (.5x) __.__.__.__.__.__.__.__.__.__.__.
 72
   65
 73
    6
 40
22.225
 49
6.35
 74
    0
 49
-3.175
 74
    0
 49
6.35
 74
    0
 49
-3.175
 74
    0
 49
0
 74
    0
 49
-3.175
 74
    0
  0
LTYPE
  5
45
330
5
100
AcDbSymbolTableRecord
100
AcDbLinetypeTableRecord
  2
BORDERX2
 70
    0
  3
Border (2x) ____  ____  .  ____  ____  .  ___
 72
   65
 73
    6
 40
88.89999999999999
 49
25.4
 74
    0
 49
-12.7
 74
    0
 49
25.4
 74
    0
 49
-12.7
 74
    0
 49
0
 74
    0
 49
-12.7
 74
    0
  0
LTYPE
  5
46
330
5
100
AcDbSymbolTableRecord
100
AcDbLinetypeTableRecord
  2
CENTER
 70
    0
  3
Center ____ _ ____ _ ____ _ ____ _ ____ _ ____
 72
   65
 73
    4
 40
50.8
 49
31.75
 74
    0
 49
-6.35
 74
    0
 49
6.35
 74
    0
 49
-6.35
 74
    0
  0
LTYPE
  5
47
330
5
100
AcDbSymbolTableRecord
100
AcDbLinetypeTableRecord
  2
CENTERTINY
 70
    0
  3
Center (.15x) ___ _ ___ _ ___ _ ___ _ ___ _ ___
 72
   65
 73
    4
 40
7.619999999999999
 49
4.7625
 74
    0
 49
-0.9525
 74
    0
 49
0.9525
 74
    0
 49
-0.9525
 74
    0
  0
LTYPE
  5
48
330
5
100
AcDbSymbolTableRecord
100
AcDbLinetypeTableRecord
  2
CENTER2
 70
    0
  3
Center (.5x) ___ _ ___ _ ___ _ ___ _ ___ _ ___
 72
   65
 73
    4
 40
28.575
 49
19.05
 74
    0
 49
-3.175
 74
    0
 49
3.175
 74
    0
 49
-3.175
 74
    0
  0
LTYPE
  5
49
330
5
100
AcDbSymbolTableRecord
100
AcDbLinetypeTableRecord
  2
CENTERX2
 70
    0
  3
Center (2x) ________  __  ________  __  _____
 72
   65
 73
    4
 40
101.6
 49
63.5
 74
    0
 49
-12.7
 74
    0
 49
12.7
 74
    0
 49
-12.7
 74
    0
  0
ENDTAB
  0
TABLE
  2
LAYER
  5
2
330
0
100
AcDbSymbolTable
 70
    1
  0
LAYER
  5
10
330
2
100
AcDbSymbolTableRecord
100
AcDbLayerTableRecord
  2
0
 70
    0
 62
    7
  6
CONTINUOUS
370
   -3
390
F
  0
LAYER
  5
4A
330
2
100
AcDbSymbolTableRecord
100
AcDbLayerTableRecord
  2
Arrows
 70
    0
 62
    0
  6
CONTINUOUS
370
   -3
390
F
  0
LAYER
  5
4B
330
2
100
AcDbSymbolTableRecord
100
AcDbLayerTableRecord
  2
Furnitures
 70
    0
 62
    0
  6
CONTINUOUS
370
   -3
390
F
  0
LAYER
  5
4C
330
2
100
AcDbSymbolTableRecord
100
AcDbLayerTableRecord
  2
Pillars
 70
    0
 62
    0
  6
CONTINUOUS
370
   -3
390
F
  0
LAYER
  5
4D
330
2
100
AcDbSymbolTableRecord
100
AcDbLayerTableRecord
  2
Staircases
 70
    0
 62
    0
  6
CONTINUOUS
370
   -3
390
F
  0
LAYER
  5
4E
330
2
100
AcDbSymbolTableRecord
100
AcDbLayerTableRecord
  2
Text Arrows
 70
    0
 62
    0
  6
CONTINUOUS
370
   -3
390
F
  0
LAYER
  5
4F
330
2
100
AcDbSymbolTableRecord
100
AcDbLayerTableRecord
  2
Text Borders
 70
    0
 62
    0
  6
CONTINUOUS
370
   -3
390
F
  0
LAYER
  5
50
330
2
100
AcDbSymbolTableRecord
100
AcDbLayerTableRecord
  2
Texts
 70
    0
 62
    0
  6
CONTINUOUS
370
   -3
390
F
  0
LAYER
  5
51
330
2
100
AcDbSymbolTableRecord
100
AcDbLayerTableRecord
  2
Walls
 70
    0
 62
    0
  6
CONTINUOUS
370
   -3
390
F
  0
ENDTAB
  0
TABLE
  2
STYLE
  5
3
330
0
100
AcDbSymbolTable
 70
    3
  0
STYLE
  5
52
330
2
100
AcDbSymbolTableRecord
100
AcDbTextStyleTableRecord
  2
standard
 70
    0
 40
0
 41
1
 50
0
 71
    0
 42
1
  3
standard
  4

  0
ENDTAB
  0
TABLE
  2
VIEW
  5
6
330
0
100
AcDbSymbolTable
 70
    0
  0
ENDTAB
  0
TABLE
  2
UCS
  5
7
330
0
100
AcDbSymbolTable
 70
    0
  0
ENDTAB
  0
TABLE
  2
APPID
  5
9
330
0
100
AcDbSymbolTable
 70
    1
  0
APPID
  5
12
330
9
100
AcDbSymbolTableRecord
100
AcDbRegAppTableRecord
  2
ACAD
 70
    0
  0
APPID
  5
53
330
9
100
AcDbSymbolTableRecord
100
AcDbRegAppTableRecord
  2
LibreCad
 70
    0
  0
ENDTAB
  0
TABLE
  2
DIMSTYLE
  5
A
330
0
100
AcDbSymbolTable
 70
    1
100
AcDbDimStyleTable
 71
    1
  0
DIMSTYLE
105
54
330
A
100
AcDbSymbolTableRecord
100
AcDbDimStyleTableRecord
  2
Standard
 70
    0
 40
1
 41
2.5
 42
0.625
 43
0.38
 44
1.25
 45
0
 46
0
 47
0
 48
0
 49
1
140
2.5
141
0.09
142
2.5
143
25.4
144
1
145
0
146
1
147
0.625
148
0
 71
    0
 72
    0
 73
    0
 74
    1
 75
    0
 76
    0
 77
    0
 78
    1
 79
    0
170
    0
171
    2
172
    0
173
    0
174
    0
175
    0
176
    0
177
    0
178
    0
179
    0
271
    2
272
    4
273
    2
274
    2
275
    0
276
    0
277
    2
278
    0
279
    0
280
    0
281
    0
282
    0
283
    1
284
    0
285
    0
286
    0
288
    0
289
    3
340
standard
341

371
   -2
372
   -2
  0
ENDTAB
  0
TABLE
  2
BLOCK_RECORD
  5
1
330
0
100
AcDbSymbolTable
 70
    2
  0
BLOCK_RECORD
  5
1F
330
1
100
AcDbSymbolTableRecord
100
AcDbBlockTableRecord
  2
*Model_Space
 70
    0
280
    1
281
    0
  0
BLOCK_RECORD
  5
1E
330
1
100
AcDbSymbolTableRecord
100
AcDbBlockTableRecord
  2
*Paper_Space
 70
    0
280
    1
281
    0
  0
ENDTAB
  0
ENDSEC
  0
SECTION
  2
BLOCKS
  0
BLOCK
  5
20
330
1F
100
AcDbEntity
  8
0
100
AcDbBlockBegin
  2
*Model_Space
 70
    0
 10
0
 20
0
 30
0
  3
*Model_Space
  1

  0
ENDBLK
  5
21
330
1F
100
AcDbEntity
  8
0
100
AcDbBlockEnd
  0
BLOCK
  5
1C
330
1B
100
AcDbEntity
  8
0
100
AcDbBlockBegin
  2
*Paper_Space
 70
    0
 10
0
 20
0
 30
0
  3
*Paper_Space
  1

  0
ENDBLK
  5
1D
330
1F
100
AcDbEntity
  8
0
100
AcDbBlockEnd
  0
ENDSEC
  0
SECTION
  2
ENTITIES
  0
LWPOLYLINE
  5
55
100
AcDbEntity
  8
Pillars
  6
ByLayer
 62
  256
370
   -1
100
AcDbPolyline
 90
    4
 70
    1
 43
0
 10
270.4
 20
120.4000000000001
 10
270.4
 20
131.4000000000001
 10
335.4
 20
131.4000000000001
 10
335.4
 20
120.4000000000001
  0
LWPOLYLINE
  5
56
100
AcDbEntity
  8
Pillars
  6
ByLayer
 62
  256
370
   -1
100
AcDbPolyline
 90
    4
 70
    1
 43
0
 10
647.4
 20
123.4000000000001
 10
647.4
 20
135.4000000000001
 10
706.4
 20
135.4000000000001
 10
706.4
 20
123.4000000000001
  0
LWPOLYLINE
  5
57
100
AcDbEntity
  8
Walls
  6
ByLayer
 62
  256
370
   -1
100
AcDbPolyline
 90
   32
 70
    1
 43
0
 10
713.7
 20
357.1
 10
713.8
 20
361.9000000000001
 10
706.3
 20
361.9000000000001
 10
706.6
 20
436
 10
714.1
 20
436
 10
714.8
 20
572
 10
570.9
 20
571.8000000000001
 10
570.9
 20
578.2
 10
563.4
 20
578.2
 10
563.5
 20
651.8000000000001
 10
571
 20
651.8000000000001
 10
571
 20
657.7
 10
586.3
 20
657.7
 10
586.3
 20
665.2
 10
669.9
 20
665.2
 10
669.9
 20
657.7
 10
689.4
 20
657.8000000000001
 10
689.4
 20
665.3000000000001
 10
760.5
 20
665.3000000000001
 10
760.5
 20
657.8000000000001
 10
894.8
 20
658
 10
894.8
 20
654.9000000000001
 10
902.3
 20
654.9000000000001
 10
901.9
 20
586.7
 10
894.4
 20
586.8000000000001
 10
894.3
 20
579.7
 10
839.9
 20
579.5
 10
840
 20
566.9000000000001
 10
847.5
 20
567
 10
848
 20
495.6
 10
840.5
 20
495.6
 10
841.4
 20
356.6
  0
LWPOLYLINE
  5
58
100
AcDbEntity
  8
Walls
  6
ByLayer
 62
  256
370
   -1
100
AcDbPolyline
 90
    4
 70
    1
 43
0
 10
573.3
 20
508.5
 10
573.3
 20
565.5
 10
702.3
 20
565.5
 10
702.3
 20
508.5
  0
LWPOLYLINE
  5
59
100
AcDbEntity
  8
Walls
  6
ByLayer
 62
  256
370
   -1
100
AcDbPolyline
 90
   16
 70
    1
 43
0
 10
272
 20
121.4000000000001
 10
272.1
 20
479.6
 10
278.5
 20
479.6
 10
278.5
 20
483.5
 10
385.7
 20
482.8000000000001
 10
385.7
 20
478.9000000000001
 10
391.6
 20
478.8000000000001
 10
391.4
 20
450.9000000000001
 10
547.9
 20
450.4000000000001
 10
547.9
 20
501.1
 10
704.5
 20
499.9000000000001
 10
706
 20
122.5
 10
646.6
 20
122.3000000000001
 10
646.6
 20
114.9000000000001
 10
337.3
 20
114
 10
337.3
 20
121.5
  0
LWPOLYLINE
  5
5A
100
AcDbEntity
  8
Walls
  6
ByLayer
 62
  256
370
   -1
100
AcDbPolyline
 90
    8
 70
    1
 43
0
 10
1216.3
 20
573.4000000000001
 10
1216.7
 20
331.6
 10
1151.7
 20
331.4000000000001
 10
1151.8
 20
310.7
 10
912.3
 20
310
 10
912.3
 20
330.8000000000001
 10
849.7
 20
330.6
 10
850.8
 20
573.8000000000001
  0
LWPOLYLINE
  5
5B
100
AcDbEntity
  8
Walls
  6
ByLayer
 62
  256
370
   -1
100
AcDbPolyline
 90
   10
 70
    1
 43
0
 10
903
 20
661.6
 10
957.1
 20
661.5
 10
956.7
 20
913.1
 10
992
 20
913
 10
992
 20
933.4000000000001
 10
1182.5
 20
932.9000000000001
 10
1182.5
 20
912.4000000000001
 10
1215.2
 20
912.3000000000001
 10
1215
 20
582.8000000000001
 10
903.5
 20
582.6
  0
LWPOLYLINE
  5
5C
100
AcDbEntity
  8
Walls
  6
ByLayer
 62
  256
370
   -1
100
AcDbPolyline
 90
    8
 70
    1
 43
0
 10
683.5
 20
666.4000000000001
 10
683.3
 20
909.8000000000001
 10
751.2
 20
909.5
 10
751.4
 20
930.3000000000001
 10
883.7
 20
929.6
 10
883.6
 20
908.8000000000001
 10
945.7
 20
908.5
 10
946.2
 20
667.1
  0
LWPOLYLINE
  5
5D
100
AcDbEntity
  8
Walls
  6
ByLayer
 62
  256
370
   -1
100
AcDbPolyline
 90
   12
 70
    1
 43
0
 10
513.9
 20
909.4000000000001
 10
546.5
 20
909.3000000000001
 10
546.6
 20
931.2
 10
662.8
 20
930.8000000000001
 10
662.8
 20
909
 10
674.1
 20
908.9000000000001
 10
675.4
 20
669.4000000000001
 10
668.9
 20
669.4000000000001
 10
668.9
 20
664.9000000000001
 10
585.5
 20
665.1
 10
585.5
 20
669.7
 10
513.5
 20
669.9000000000001
  0
LWPOLYLINE
  5
5E
100
AcDbEntity
  8
Walls
  6
ByLayer
 62
  256
370
   -1
100
AcDbPolyline
 90
   20
 70
    1
 43
0
 10
506.1
 20
908.3000000000001
 10
504.3
 20
657.7
 10
560.2
 20
657.8000000000001
 10
561.1
 20
509.1
 10
391.1
 20
508.8000000000001
 10
391
 20
486.6
 10
389.7
 20
486.6
 10
389.7
 20
482.6
 10
276.8
 20
482.5
 10
276.8
 20
486.5
 10
272.2
 20
486.5
 10
272.1
 20
531.3000000000001
 10
251.4
 20
531.3000000000001
 10
251.2
 20
630.4000000000001
 10
271.9
 20
630.5
 10
271.3
 20
908.6
 10
321.4
 20
908.5
 10
321.4
 20
932
 10
501.7
 20
931.7
 10
501.7
 20
908.3000000000001
  0
LWPOLYLINE
  5
5F
100
AcDbEntity
  8
Walls
  6
ByLayer
 62
  256
370
   -1
100
AcDbPolyline
 90
   16
 70
    1
 43
0
 10
119
 20
630.4000000000001
 10
118.9
 20
651.6
 10
115.9
 20
651.6
 10
115.4
 20
872.1
 10
118.4
 20
872.1
 10
118.4
 20
876.3000000000001
 10
243.5
 20
876.1
 10
243.3
 20
758.2
 10
268
 20
758.2
 10
267.9
 20
665
 10
243.2
 20
665
 10
243.1
 20
630.4000000000001
 10
216.7
 20
630.4000000000001
 10
216.7
 20
627.4000000000001
 10
133.4
 20
627.4000000000001
 10
133.4
 20
630.4000000000001
  0
LWPOLYLINE
  5
60
100
AcDbEntity
  8
Furnitures
  6
ByLayer
 62
  256
370
   -1
100
AcDbPolyline
 90
    5
 70
    1
 43
0
 10
513
 20
696.3000000000001
 10
547.6
 20
695.7
 10
548.6
 20
752.3000000000001
 10
514
 20
752.9000000000001
 10
513
 20
696.3000000000001
  0
LWPOLYLINE
  5
61
100
AcDbEntity
  8
Furnitures
  6
ByLayer
 62
  256
370
   -1
100
AcDbPolyline
 90
    5
 70
    1
 43
0
 10
516
 20
699.3000000000001
 10
544.6
 20
698.8000000000001
 10
545.5
 20
749.4000000000001
 10
516.9
 20
749.9000000000001
 10
516
 20
699.3000000000001
  0
LWPOLYLINE
  5
62
100
AcDbEntity
  8
Furnitures
  6
ByLayer
 62
  256
370
   -1
100
AcDbPolyline
 90
    3
 70
    1
 43
0
 10
513.4
 20
724.6
 10
530.6999999999999
 20
724.3
 10
513.4
 20
724.6
  0
LWPOLYLINE
  5
63
100
AcDbEntity
  8
Furnitures
  6
ByLayer
 62
  256
370
   -1
100
AcDbPolyline
 90
   61
 70
    1
 43
0
 10
621.6
 20
908
 10
656.6
 20
908
 10
656.6
 20
860.5
 10
656.5922796485127
 20
859.9721361945317
 10
656.531157682455
 20
858.928598669844
 10
656.4105514674902
 20
857.9027386953576
 10
656.2321699258621
 20
856.8962651933169
 10
655.9977219798145
 20
855.9108870859657
 10
655.7089165515914
 20
854.9483132955477
 10
655.3674625634367
 20
854.0102527443069
 10
654.9750689375946
 20
853.0984143544872
 10
654.5334445963084
 20
852.2145070483325
 10
654.0442984618225
 20
851.3602397480868
 10
653.5093394563805
 20
850.537321375994
 10
652.9302765022264
 20
849.7474608542979
 10
652.3088185216042
 20
848.9923671052424
 10
651.6466744367578
 20
848.2737490510715
 10
650.9455531699309
 20
847.5933156140289
 10
650.2071636433677
 20
846.9527757163588
 10
649.4332147793118
 20
846.353838280305
 10
648.6254155000073
 20
845.7982122281113
 10
647.7854747276981
 20
845.2876064820217
 10
646.915101384628
 20
844.8237299642801
 10
646.0160043930412
 20
844.4082915971303
 10
645.089892675181
 20
844.0430003028164
 10
644.1384751532919
 20
843.7295650035819
 10
643.1634607496175
 20
843.4696946216714
 10
642.1665583864017
 20
843.265098079328
 10
641.1494769858886
 20
843.1174842987963
 10
640.1139254703219
 20
843.0285622023198
 10
639.1
 20
843
 10
639.0616325894734
 20
843.0000406850763
 10
638.0104766318058
 20
843.0329949445736
 10
636.9762056594878
 20
843.1262260178299
 10
635.9605285947634
 20
843.2780249826016
 10
634.9651543598767
 20
843.4866829166444
 10
633.9917918770714
 20
843.7504908977148
 10
633.0421500685912
 20
844.0677400035686
 10
632.1179378566806
 20
844.4367213119619
 10
631.2208641635826
 20
844.8557259006511
 10
630.352637911542
 20
845.323044847392
 10
629.5149680228021
 20
845.8369692299408
 10
628.7095634196072
 20
846.3957901260535
 10
627.938133024201
 20
846.9977986134863
 10
627.2023857588275
 20
847.6412857699954
 10
626.5040305457305
 20
848.3245426733366
 10
625.8447763071539
 20
849.0458604012663
 10
625.2263319653417
 20
849.8035300315404
 10
624.6504064425377
 20
850.5958426419151
 10
624.118708660986
 20
851.4210893101463
 10
623.6329475429303
 20
852.2775611139904
 10
623.1948320106146
 20
853.1635491312032
 10
622.8060709862827
 20
854.0773444395411
 10
622.4683733921786
 20
855.0172381167599
 10
622.1834481505463
 20
855.981521240616
 10
621.9530041836293
 20
856.9684848888652
 10
621.778750413672
 20
857.9764201392637
 10
621.6623957629181
 20
859.0036180695677
 10
621.6056491536116
 20
860.0483697575331
 10
621.6
 20
860.5
 10
621.6
 20
908
  0
LWPOLYLINE
  5
64
100
AcDbEntity
  8
Furnitures
  6
ByLayer
 62
  256
370
   -1
100
AcDbPolyline
 90
    2
 70
    0
 43
0
 10
621.1
 20
893
 10
657.1
 20
893
  0
LWPOLYLINE
  5
65
100
AcDbEntity
  8
Furnitures
  6
ByLayer
 62
  256
370
   -1
100
AcDbPolyline
 90
    5
 70
    1
 43
0
 10
516.4
 20
820
 10
605.8
 20
820
 10
605.8
 20
909.4000000000001
 10
516.4
 20
909.4000000000001
 10
516.4
 20
820
  0
LWPOLYLINE
  5
66
100
AcDbEntity
  8
Furnitures
  6
ByLayer
 62
  256
370
   -1
100
AcDbPolyline
 90
    5
 70
    1
 43
0
 10
519.4
 20
823
 10
602.8
 20
823
 10
602.8
 20
906.4000000000001
 10
519.4
 20
906.4000000000001
 10
519.4
 20
823
  0
LWPOLYLINE
  5
67
100
AcDbEntity
  8
Furnitures
  6
ByLayer
 62
  256
370
   -1
100
AcDbPolyline
 90
    3
 70
    1
 43
0
 10
516.4
 20
864.7
 10
546.4
 20
864.7
 10
516.4
 20
864.7
  0
CIRCLE
  5
68
100
AcDbEntity
  8
Furnitures
  6
ByLayer
 62
  256
370
   -1
100
AcDbCircle
 10
546.4
 20
864.7
 40
9.5
  0
LWPOLYLINE
  5
69
100
AcDbEntity
  8
Furnitures
  6
ByLayer
 62
  256
370
   -1
100
AcDbPolyline
 90
    5
 70
    1
 43
0
 10
352.2
 20
904.7
 10
352.5
 20
856.8000000000001
 10
430.8
 20
857.4000000000001
 10
430.5
 20
905.3000000000001
 10
352.2
 20
904.7
  0
LWPOLYLINE
  5
6A
100
AcDbEntity
  8
Furnitures
  6
ByLayer
 62
  256
370
   -1
100
AcDbPolyline
 90
    5
 70
    1
 43
0
 10
355.2
 20
901.7
 10
355.5
 20
859.8000000000001
 10
427.8
 20
860.3000000000001
 10
427.5
 20
902.2
 10
355.2
 20
901.7
  0
LWPOLYLINE
  5
6B
100
AcDbEntity
  8
Furnitures
  6
ByLayer
 62
  256
370
   -1
100
AcDbPolyline
 90
    3
 70
    1
 43
0
 10
391.4
 20
905
 10
391.5
 20
885
 10
391.4
 20
905
  0
LWPOLYLINE
  5
6C
100
AcDbEntity
  8
Arrows
  6
ByLayer
 62
  256
370
   -1
100
AcDbPolyline
 90
    5
 70
    1
 43
0
 10
840.5
 20
480.5
 10
841.5
 20
480.5
 10
841.5
 20
486.5
 10
840.5
 20
486.5
 10
840.5
 20
480.5
  0
LWPOLYLINE
  5
6D
100
AcDbEntity
  8
Arrows
  6
ByLayer
 62
  256
370
   -1
100
AcDbPolyline
 90
    5
 70
    1
 43
0
 10
831.6
 20
483.5
 10
831.6
 20
480.5
 10
840.6
 20
483.4
 10
831.6
 20
486.5
 10
831.6
 20
483.5
  0
LWPOLYLINE
  5
6E
100
AcDbEntity
  8
Arrows
  6
ByLayer
 62
  256
370
   -1
100
AcDbPolyline
 90
    5
 70
    1
 43
0
 10
714.4
 20
487.3000000000001
 10
713.4
 20
487.3000000000001
 10
713.4
 20
481.3000000000001
 10
714.4
 20
481.3000000000001
 10
714.4
 20
487.3000000000001
  0
LWPOLYLINE
  5
6F
100
AcDbEntity
  8
Arrows
  6
ByLayer
 62
  256
370
   -1
100
AcDbPolyline
 90
    5
 70
    1
 43
0
 10
723.3
 20
484.2
 10
723.3
 20
487.2
 10
714.3
 20
484.3000000000001
 10
723.3
 20
481.2
 10
723.3
 20
484.2
  0
LWPOLYLINE
  5
70
100
AcDbEntity
  8
Arrows
  6
ByLayer
 62
  256
370
   -1
100
AcDbPolyline
 90
    5
 70
    1
 43
0
 10
829.7
 20
356.6
 10
829.7
 20
355.6
 10
835.7
 20
355.6
 10
835.7
 20
356.6
 10
829.7
 20
356.6
  0
LWPOLYLINE
  5
71
100
AcDbEntity
  8
Arrows
  6
ByLayer
 62
  256
370
   -1
100
AcDbPolyline
 90
    5
 70
    1
 43
0
 10
832.7
 20
365.6
 10
829.7
 20
365.6
 10
832.7
 20
356.6
 10
835.7
 20
365.6
 10
832.7
 20
365.6
  0
LWPOLYLINE
  5
72
100
AcDbEntity
  8
Arrows
  6
ByLayer
 62
  256
370
   -1
100
AcDbPolyline
 90
    5
 70
    1
 43
0
 10
836.2
 20
657.9000000000001
 10
836.2
 20
658.9000000000001
 10
830.2
 20
658.9000000000001
 10
830.2
 20
657.9000000000001
 10
836.2
 20
657.9000000000001
  0
LWPOLYLINE
  5
73
100
AcDbEntity
  8
Arrows
  6
ByLayer
 62
  256
370
   -1
100
AcDbPolyline
 90
    5
 70
    1
 43
0
 10
833.2
 20
648.9000000000001
 10
836.2
 20
648.9000000000001
 10
833.2
 20
657.9000000000001
 10
830.2
 20
648.9000000000001
 10
833.2
 20
648.9000000000001
  0
LWPOLYLINE
  5
74
100
AcDbEntity
  8
Arrows
  6
ByLayer
 62
  256
370
   -1
100
AcDbPolyline
 90
    5
 70
    1
 43
0
 10
705.6
 20
243.9000000000001
 10
706.6
 20
243.9000000000001
 10
706.6
 20
249.9000000000001
 10
705.6
 20
249.9000000000001
 10
705.6
 20
243.9000000000001
  0
LWPOLYLINE
  5
75
100
AcDbEntity
  8
Arrows
  6
ByLayer
 62
  256
370
   -1
100
AcDbPolyline
 90
    5
 70
    1
 43
0
 10
696.5
 20
246.8000000000001
 10
696.5
 20
243.8000000000001
 10
705.5
 20
246.8000000000001
 10
696.5
 20
249.8000000000001
 10
696.5
 20
246.8000000000001
  0
LWPOLYLINE
  5
76
100
AcDbEntity
  8
Arrows
  6
ByLayer
 62
  256
370
   -1
100
AcDbPolyline
 90
    5
 70
    1
 43
0
 10
272
 20
248.7
 10
271
 20
248.7
 10
271
 20
242.7
 10
272
 20
242.7
 10
272
 20
248.7
  0
LWPOLYLINE
  5
77
100
AcDbEntity
  8
Arrows
  6
ByLayer
 62
  256
370
   -1
100
AcDbPolyline
 90
    5
 70
    1
 43
0
 10
281
 20
245.7
 10
281
 20
248.7
 10
272
 20
245.7
 10
281
 20
242.7
 10
281
 20
245.7
  0
LWPOLYLINE
  5
78
100
AcDbEntity
  8
Arrows
  6
ByLayer
 62
  256
370
   -1
100
AcDbPolyline
 90
    5
 70
    1
 43
0
 10
602
 20
122.2
 10
602
 20
121.2
 10
608
 20
121.2
 10
608
 20
122.2
 10
602
 20
122.2
  0
LWPOLYLINE
  5
79
100
AcDbEntity
  8
Arrows
  6
ByLayer
 62
  256
370
   -1
100
AcDbPolyline
 90
    5
 70
    1
 43
0
 10
604.9
 20
131.2
 10
601.9
 20
131.2
 10
604.9
 20
122.2
 10
607.9
 20
131.2
 10
604.9
 20
131.2
  0
LWPOLYLINE
  5
7A
100
AcDbEntity
  8
Arrows
  6
ByLayer
 62
  256
370
   -1
100
AcDbPolyline
 90
    5
 70
    1
 43
0
 10
606.9
 20
500.6
 10
606.9
 20
501.6
 10
600.9
 20
501.6
 10
600.9
 20
500.6
 10
606.9
 20
500.6
  0
LWPOLYLINE
  5
7B
100
AcDbEntity
  8
Arrows
  6
ByLayer
 62
  256
370
   -1
100
AcDbPolyline
 90
    5
 70
    1
 43
0
 10
604
 20
491.6
 10
607
 20
491.6
 10
604
 20
500.6
 10
601
 20
491.6
 10
604
 20
491.6
  0
LWPOLYLINE
  5
7C
100
AcDbEntity
  8
Arrows
  6
ByLayer
 62
  256
370
   -1
100
AcDbPolyline
 90
    5
 70
    1
 43
0
 10
849.9
 20
361.5
 10
848.9
 20
361.5
 10
848.9
 20
355.5
 10
849.9
 20
355.5
 10
849.9
 20
361.5
  0
LWPOLYLINE
  5
7D
100
AcDbEntity
  8
Arrows
  6
ByLayer
 62
  256
370
   -1
100
AcDbPolyline
 90
    5
 70
    1
 43
0
 10
858.8
 20
358.4000000000001
 10
858.8
 20
361.4000000000001
 10
849.8
 20
358.4000000000001
 10
858.8
 20
355.4000000000001
 10
858.8
 20
358.4000000000001
  0
LWPOLYLINE
  5
7E
100
AcDbEntity
  8
Arrows
  6
ByLayer
 62
  256
370
   -1
100
AcDbPolyline
 90
    5
 70
    1
 43
0
 10
1216.6
 20
355.1
 10
1217.6
 20
355.1
 10
1217.6
 20
361.1
 10
1216.6
 20
361.1
 10
1216.6
 20
355.1
  0
LWPOLYLINE
  5
7F
100
AcDbEntity
  8
Arrows
  6
ByLayer
 62
  256
370
   -1
100
AcDbPolyline
 90
    5
 70
    1
 43
0
 10
1207.6
 20
358.1
 10
1207.6
 20
355.1
 10
1216.6
 20
358.1
 10
1207.6
 20
361.1
 10
1207.6
 20
358.1
  0
LWPOLYLINE
  5
80
100
AcDbEntity
  8
Arrows
  6
ByLayer
 62
  256
370
   -1
100
AcDbPolyline
 90
    5
 70
    1
 43
0
 10
1030.2
 20
331.1
 10
1030.2
 20
330.1
 10
1036.2
 20
330.1
 10
1036.2
 20
331.1
 10
1030.2
 20
331.1
  0
LWPOLYLINE
  5
81
100
AcDbEntity
  8
Arrows
  6
ByLayer
 62
  256
370
   -1
100
AcDbPolyline
 90
    5
 70
    1
 43
0
 10
1033.2
 20
340.1
 10
1030.2
 20
340.1
 10
1033.2
 20
331.1
 10
1036.2
 20
340.1
 10
1033.2
 20
340.1
  0
LWPOLYLINE
  5
82
100
AcDbEntity
  8
Arrows
  6
ByLayer
 62
  256
370
   -1
100
AcDbPolyline
 90
    5
 70
    1
 43
0
 10
1036.4
 20
573.6
 10
1036.4
 20
574.6
 10
1030.4
 20
574.6
 10
1030.4
 20
573.6
 10
1036.4
 20
573.6
  0
LWPOLYLINE
  5
83
100
AcDbEntity
  8
Arrows
  6
ByLayer
 62
  256
370
   -1
100
AcDbPolyline
 90
    5
 70
    1
 43
0
 10
1033.4
 20
564.6
 10
1036.4
 20
564.6
 10
1033.4
 20
573.6
 10
1030.4
 20
564.6
 10
1033.4
 20
564.6
  0
LWPOLYLINE
  5
84
100
AcDbEntity
  8
Arrows
  6
ByLayer
 62
  256
370
   -1
100
AcDbPolyline
 90
    5
 70
    1
 43
0
 10
1215.1
 20
781.7
 10
1216.1
 20
781.7
 10
1216.1
 20
787.7
 10
1215.1
 20
787.7
 10
1215.1
 20
781.7
  0
LWPOLYLINE
  5
85
100
AcDbEntity
  8
Arrows
  6
ByLayer
 62
  256
370
   -1
100
AcDbPolyline
 90
    5
 70
    1
 43
0
 10
1206.1
 20
784.7
 10
1206.1
 20
781.7
 10
1215.1
 20
784.7
 10
1206.1
 20
787.7
 10
1206.1
 20
784.7
  0
LWPOLYLINE
  5
86
100
AcDbEntity
  8
Arrows
  6
ByLayer
 62
  256
370
   -1
100
AcDbPolyline
 90
    5
 70
    1
 43
0
 10
956.9
 20
787.9000000000001
 10
955.9
 20
787.9000000000001
 10
955.9
 20
781.9000000000001
 10
956.9
 20
781.9000000000001
 10
956.9
 20
787.9000000000001
  0
LWPOLYLINE
  5
87
100
AcDbEntity
  8
Arrows
  6
ByLayer
 62
  256
370
   -1
100
AcDbPolyline
 90
    5
 70
    1
 43
0
 10
965.9
 20
784.9000000000001
 10
965.9
 20
787.9000000000001
 10
956.9
 20
784.9000000000001
 10
965.9
 20
781.9000000000001
 10
965.9
 20
784.9000000000001
  0
LWPOLYLINE
  5
88
100
AcDbEntity
  8
Arrows
  6
ByLayer
 62
  256
370
   -1
100
AcDbPolyline
 90
    5
 70
    1
 43
0
 10
1085.4
 20
582.7
 10
1085.4
 20
581.7
 10
1091.4
 20
581.7
 10
1091.4
 20
582.7
 10
1085.4
 20
582.7
  0
LWPOLYLINE
  5
89
100
AcDbEntity
  8
Arrows
  6
ByLayer
 62
  256
370
   -1
100
AcDbPolyline
 90
    5
 70
    1
 43
0
 10
1088.4
 20
591.7
 10
1085.4
 20
591.7
 10
1088.4
 20
582.7
 10
1091.4
 20
591.7
 10
1088.4
 20
591.7
  0
LWPOLYLINE
  5
8A
100
AcDbEntity
  8
Arrows
  6
ByLayer
 62
  256
370
   -1
100
AcDbPolyline
 90
    5
 70
    1
 43
0
 10
1091.6
 20
912.7
 10
1091.6
 20
913.7
 10
1085.6
 20
913.7
 10
1085.6
 20
912.7
 10
1091.6
 20
912.7
  0
LWPOLYLINE
  5
8B
100
AcDbEntity
  8
Arrows
  6
ByLayer
 62
  256
370
   -1
100
AcDbPolyline
 90
    5
 70
    1
 43
0
 10
1088.6
 20
903.7
 10
1091.6
 20
903.7
 10
1088.6
 20
912.7
 10
1085.6
 20
903.7
 10
1088.6
 20
903.7
  0
LWPOLYLINE
  5
8C
100
AcDbEntity
  8
Arrows
  6
ByLayer
 62
  256
370
   -1
100
AcDbPolyline
 90
    5
 70
    1
 43
0
 10
683.4
 20
791.1
 10
682.4
 20
791.1
 10
682.4
 20
785.1
 10
683.4
 20
785.1
 10
683.4
 20
791.1
  0
LWPOLYLINE
  5
8D
100
AcDbEntity
  8
Arrows
  6
ByLayer
 62
  256
370
   -1
100
AcDbPolyline
 90
    5
 70
    1
 43
0
 10
692.4
 20
788.2
 10
692.4
 20
791.2
 10
683.4
 20
788.2
 10
692.4
 20
785.2
 10
692.4
 20
788.2
  0
LWPOLYLINE
  5
8E
100
AcDbEntity
  8
Arrows
  6
ByLayer
 62
  256
370
   -1
100
AcDbPolyline
 90
    5
 70
    1
 43
0
 10
946
 20
785.8000000000001
 10
947
 20
785.8000000000001
 10
947
 20
791.8000000000001
 10
946
 20
791.8000000000001
 10
946
 20
785.8000000000001
  0
LWPOLYLINE
  5
8F
100
AcDbEntity
  8
Arrows
  6
ByLayer
 62
  256
370
   -1
100
AcDbPolyline
 90
    5
 70
    1
 43
0
 10
937
 20
788.8000000000001
 10
937
 20
785.8000000000001
 10
946
 20
788.8000000000001
 10
937
 20
791.8000000000001
 10
937
 20
788.8000000000001
  0
LWPOLYLINE
  5
90
100
AcDbEntity
  8
Arrows
  6
ByLayer
 62
  256
370
   -1
100
AcDbPolyline
 90
    5
 70
    1
 43
0
 10
845.8
 20
666.8000000000001
 10
845.8
 20
665.8000000000001
 10
851.8
 20
665.8000000000001
 10
851.8
 20
666.8000000000001
 10
845.8
 20
666.8000000000001
  0
LWPOLYLINE
  5
91
100
AcDbEntity
  8
Arrows
  6
ByLayer
 62
  256
370
   -1
100
AcDbPolyline
 90
    5
 70
    1
 43
0
 10
848.8
 20
675.8000000000001
 10
845.8
 20
675.8000000000001
 10
848.8
 20
666.8000000000001
 10
851.8
 20
675.8000000000001
 10
848.8
 20
675.8000000000001
  0
LWPOLYLINE
  5
92
100
AcDbEntity
  8
Arrows
  6
ByLayer
 62
  256
370
   -1
100
AcDbPolyline
 90
    5
 70
    1
 43
0
 10
851.2
 20
909
 10
851.2
 20
910
 10
845.2
 20
910
 10
845.2
 20
909
 10
851.2
 20
909
  0
LWPOLYLINE
  5
93
100
AcDbEntity
  8
Arrows
  6
ByLayer
 62
  256
370
   -1
100
AcDbPolyline
 90
    5
 70
    1
 43
0
 10
848.3
 20
900
 10
851.3
 20
900
 10
848.3
 20
909
 10
845.3
 20
900
 10
848.3
 20
900
  0
LWPOLYLINE
  5
94
100
AcDbEntity
  8
Arrows
  6
ByLayer
 62
  256
370
   -1
100
AcDbPolyline
 90
    5
 70
    1
 43
0
 10
513.7
 20
792.6
 10
512.7
 20
792.6
 10
512.7
 20
786.6
 10
513.7
 20
786.6
 10
513.7
 20
792.6
  0
LWPOLYLINE
  5
95
100
AcDbEntity
  8
Arrows
  6
ByLayer
 62
  256
370
   -1
100
AcDbPolyline
 90
    5
 70
    1
 43
0
 10
522.7
 20
789.6
 10
522.7
 20
792.6
 10
513.7
 20
789.6
 10
522.7
 20
786.6
 10
522.7
 20
789.6
  0
LWPOLYLINE
  5
96
100
AcDbEntity
  8
Arrows
  6
ByLayer
 62
  256
370
   -1
100
AcDbPolyline
 90
    5
 70
    1
 43
0
 10
674.7
 20
786.4000000000001
 10
675.7
 20
786.4000000000001
 10
675.7
 20
792.4000000000001
 10
674.7
 20
792.4000000000001
 10
674.7
 20
786.4000000000001
  0
LWPOLYLINE
  5
97
100
AcDbEntity
  8
Arrows
  6
ByLayer
 62
  256
370
   -1
100
AcDbPolyline
 90
    5
 70
    1
 43
0
 10
665.7
 20
789.4000000000001
 10
665.7
 20
786.4000000000001
 10
674.7
 20
789.4000000000001
 10
665.7
 20
792.4000000000001
 10
665.7
 20
789.4000000000001
  0
LWPOLYLINE
  5
98
100
AcDbEntity
  8
Arrows
  6
ByLayer
 62
  256
370
   -1
100
AcDbPolyline
 90
    5
 70
    1
 43
0
 10
548.9
 20
669.8000000000001
 10
548.9
 20
668.8000000000001
 10
554.9
 20
668.8000000000001
 10
554.9
 20
669.8000000000001
 10
548.9
 20
669.8000000000001
  0
LWPOLYLINE
  5
99
100
AcDbEntity
  8
Arrows
  6
ByLayer
 62
  256
370
   -1
100
AcDbPolyline
 90
    5
 70
    1
 43
0
 10
551.9
 20
678.8000000000001
 10
548.9
 20
678.8000000000001
 10
551.9
 20
669.8000000000001
 10
554.9
 20
678.8000000000001
 10
551.9
 20
678.8000000000001
  0
LWPOLYLINE
  5
9A
100
AcDbEntity
  8
Arrows
  6
ByLayer
 62
  256
370
   -1
100
AcDbPolyline
 90
    5
 70
    1
 43
0
 10
555.3
 20
909.3000000000001
 10
555.3
 20
910.3000000000001
 10
549.3
 20
910.3000000000001
 10
549.3
 20
909.3000000000001
 10
555.3
 20
909.3000000000001
  0
LWPOLYLINE
  5
9B
100
AcDbEntity
  8
Arrows
  6
ByLayer
 62
  256
370
   -1
100
AcDbPolyline
 90
    5
 70
    1
 43
0
 10
552.2
 20
900.3000000000001
 10
555.2
 20
900.3000000000001
 10
552.2
 20
909.3000000000001
 10
549.2
 20
900.3000000000001
 10
552.2
 20
900.3000000000001
  0
LWPOLYLINE
  5
9C
100
AcDbEntity
  8
Arrows
  6
ByLayer
 62
  256
370
   -1
100
AcDbPolyline
 90
    5
 70
    1
 43
0
 10
271.4
 20
837.3000000000001
 10
270.4
 20
837.3000000000001
 10
270.4
 20
831.3000000000001
 10
271.4
 20
831.3000000000001
 10
271.4
 20
837.3000000000001
  0
LWPOLYLINE
  5
9D
100
AcDbEntity
  8
Arrows
  6
ByLayer
 62
  256
370
   -1
100
AcDbPolyline
 90
    5
 70
    1
 43
0
 10
280.4
 20
834.3000000000001
 10
280.4
 20
837.3000000000001
 10
271.4
 20
834.3000000000001
 10
280.4
 20
831.3000000000001
 10
280.4
 20
834.3000000000001
  0
LWPOLYLINE
  5
9E
100
AcDbEntity
  8
Arrows
  6
ByLayer
 62
  256
370
   -1
100
AcDbPolyline
 90
    5
 70
    1
 43
0
 10
505.6
 20
831.8000000000001
 10
506.6
 20
831.8000000000001
 10
506.6
 20
837.8000000000001
 10
505.6
 20
837.8000000000001
 10
505.6
 20
831.8000000000001
  0
LWPOLYLINE
  5
9F
100
AcDbEntity
  8
Arrows
  6
ByLayer
 62
  256
370
   -1
100
AcDbPolyline
 90
    5
 70
    1
 43
0
 10
496.6
 20
834.8000000000001
 10
496.6
 20
831.8000000000001
 10
505.6
 20
834.8000000000001
 10
496.6
 20
837.8000000000001
 10
496.6
 20
834.8000000000001
  0
LWPOLYLINE
  5
A0
100
AcDbEntity
  8
Arrows
  6
ByLayer
 62
  256
370
   -1
100
AcDbPolyline
 90
    5
 70
    1
 43
0
 10
451.9
 20
908.3000000000001
 10
451.9
 20
909.3000000000001
 10
445.9
 20
909.3000000000001
 10
445.9
 20
908.3000000000001
 10
451.9
 20
908.3000000000001
  0
LWPOLYLINE
  5
A1
100
AcDbEntity
  8
Arrows
  6
ByLayer
 62
  256
370
   -1
100
AcDbPolyline
 90
    5
 70
    1
 43
0
 10
448.9
 20
899.3000000000001
 10
451.9
 20
899.3000000000001
 10
448.9
 20
908.3000000000001
 10
445.9
 20
899.3000000000001
 10
448.9
 20
899.3000000000001
  0
LWPOLYLINE
  5
A2
100
AcDbEntity
  8
Arrows
  6
ByLayer
 62
  256
370
   -1
100
AcDbPolyline
 90
    5
 70
    1
 43
0
 10
446.8
 20
508.9000000000001
 10
446.8
 20
507.9000000000001
 10
452.8
 20
507.9000000000001
 10
452.8
 20
508.9000000000001
 10
446.8
 20
508.9000000000001
  0
LWPOLYLINE
  5
A3
100
AcDbEntity
  8
Arrows
  6
ByLayer
 62
  256
370
   -1
100
AcDbPolyline
 90
    5
 70
    1
 43
0
 10
449.7
 20
517.9000000000001
 10
446.7
 20
517.9000000000001
 10
449.7
 20
508.9000000000001
 10
452.7
 20
517.9000000000001
 10
449.7
 20
517.9000000000001
  0
LWPOLYLINE
  5
A4
100
AcDbEntity
  8
Arrows
  6
ByLayer
 62
  256
370
   -1
100
AcDbPolyline
 90
    5
 70
    1
 43
0
 10
118.5
 20
819.6
 10
117.5
 20
819.6
 10
117.5
 20
813.6
 10
118.5
 20
813.6
 10
118.5
 20
819.6
  0
LWPOLYLINE
  5
A5
100
AcDbEntity
  8
Arrows
  6
ByLayer
 62
  256
370
   -1
100
AcDbPolyline
 90
    5
 70
    1
 43
0
 10
127.5
 20
816.6
 10
127.5
 20
819.6
 10
118.5
 20
816.6
 10
127.5
 20
813.6
 10
127.5
 20
816.6
  0
LWPOLYLINE
  5
A6
100
AcDbEntity
  8
Arrows
  6
ByLayer
 62
  256
370
   -1
100
AcDbPolyline
 90
    5
 70
    1
 43
0
 10
243.4
 20
813.4000000000001
 10
244.4
 20
813.4000000000001
 10
244.4
 20
819.4000000000001
 10
243.4
 20
819.4000000000001
 10
243.4
 20
813.4000000000001
  0
LWPOLYLINE
  5
A7
100
AcDbEntity
  8
Arrows
  6
ByLayer
 62
  256
370
   -1
100
AcDbPolyline
 90
    5
 70
    1
 43
0
 10
234.4
 20
816.4000000000001
 10
234.4
 20
813.4000000000001
 10
243.4
 20
816.4000000000001
 10
234.4
 20
819.4000000000001
 10
234.4
 20
816.4000000000001
  0
LWPOLYLINE
  5
A8
100
AcDbEntity
  8
Arrows
  6
ByLayer
 62
  256
370
   -1
100
AcDbPolyline
 90
    5
 70
    1
 43
0
 10
228.1
 20
876.1
 10
228.1
 20
877.1
 10
222.1
 20
877.1
 10
222.1
 20
876.1
 10
228.1
 20
876.1
  0
LWPOLYLINE
  5
A9
100
AcDbEntity
  8
Arrows
  6
ByLayer
 62
  256
370
   -1
100
AcDbPolyline
 90
    5
 70
    1
 43
0
 10
225.1
 20
867.1
 10
228.1
 20
867.1
 10
225.1
 20
876.1
 10
222.1
 20
867.1
 10
225.1
 20
867.1
  0
LWPOLYLINE
  5
AA
100
AcDbEntity
  8
Arrows
  6
ByLayer
 62
  256
370
   -1
100
AcDbPolyline
 90
    5
 70
    1
 43
0
 10
221.7
 20
630.4000000000001
 10
221.7
 20
629.4000000000001
 10
227.7
 20
629.4000000000001
 10
227.7
 20
630.4000000000001
 10
221.7
 20
630.4000000000001
  0
LWPOLYLINE
  5
AB
100
AcDbEntity
  8
Arrows
  6
ByLayer
 62
  256
370
   -1
100
AcDbPolyline
 90
    5
 70
    1
 43
0
 10
224.7
 20
639.4000000000001
 10
221.7
 20
639.4000000000001
 10
224.7
 20
630.4000000000001
 10
227.7
 20
639.4000000000001
 10
224.7
 20
639.4000000000001
  0
LINE
  5
AC
100
AcDbEntity
  8
Text Borders
  6
ByLayer
 62
  256
370
   -1
100
AcDbLine
 10
807.6951714933678
 20
506.7
 11
807.6951904296875
 21
295.3113891601563
  0
LINE
  5
AD
100
AcDbEntity
  8
Text Borders
  6
ByLayer
 62
  256
370
   -1
100
AcDbLine
 10
590.2771606445312
 20
789.9499923706055
 11
590.2771606445312
 21
940.8619606018067
  0
LWPOLYLINE
  5
AE
100
AcDbEntity
  8
Text Borders
  6
ByLayer
 62
  256
370
   -1
100
AcDbPolyline
 90
    4
 70
    1
 43
0
 10
736.9356079101562
 20
295.3113891601563
 10
736.9356079101562
 20
217.925830078125
 10
878.4547729492188
 20
217.925830078125
 10
878.4547729492188
 20
295.3113891601563
  0
LWPOLYLINE
  5
AF
100
AcDbEntity
  8
Text Borders
  6
ByLayer
 62
  256
370
   -1
100
AcDbPolyline
 90
    4
 70
    1
 43
0
 10
519.517578125
 20
1018.247458648682
 10
519.517578125
 20
940.8619606018067
 10
661.0367431640625
 20
940.8619606018067
 10
661.0367431640625
 20
1018.247458648682
  0
CIRCLE
  5
B0
100
AcDbEntity
  8
Text Borders
  6
ByLayer
 62
  256
370
   -1
100
AcDbCircle
 10
807.6951711147647
 20
511.7
 40
5
  0
CIRCLE
  5
B1
100
AcDbEntity
  8
Text Borders
  6
ByLayer
 62
  256
370
   -1
100
AcDbCircle
 10
590.2771606445312
 20
784.9499923706055
 40
5
  0
TEXT
  5
B2
100
AcDbEntity
  8
Texts
  6
ByLayer
 62
  256
370
   -1
100
AcDbText
 10
807.6951904296875
 20
274.6086627960206
 30
0
 40
14.85714285714286
  1
Hallway
 50
0
 41
1
 51
0
  7
standard
 71
    0
 72
    1
 11
807.6951904296875
 21
274.6086627960206
 31
0
210
0
220
0
230
1
100
AcDbText
 73
    2
  0
TEXT
  5
B3
100
AcDbEntity
  8
Texts
  6
ByLayer
 62
  256
370
   -1
100
AcDbText
 10
807.6951904296875
 20
240.2135078430176
 30
0
 40
12
  1
4'1'' x 9'10''
 50
0
 41
1
 51
0
  7
standard
 71
    0
 72
    1
 11
807.6951904296875
 21
240.2135078430176
 31
0
210
0
220
0
230
1
100
AcDbText
 73
    2
  0
TEXT
  5
B4
100
AcDbEntity
  8
Texts
  6
ByLayer
 62
  256
370
   -1
100
AcDbText
 10
487.3306655883789
 20
311.52865524292
 30
0
 40
12
  1
14'2'' x 12'4''
 50
0
 41
1
 51
0
  7
standard
 71
    0
 72
    1
 11
487.3306655883789
 21
311.52865524292
 31
0
210
0
220
0
230
1
100
AcDbText
 73
    2
  0
TEXT
  5
B5
100
AcDbEntity
  8
Texts
  6
ByLayer
 62
  256
370
   -1
100
AcDbText
 10
1030.345497131348
 20
453.5249912261963
 30
0
 40
12
  1
12'0'' x 7'11''
 50
0
 41
1
 51
0
  7
standard
 71
    0
 72
    1
 11
1030.345497131348
 21
453.5249912261963
 31
0
210
0
220
0
230
1
100
AcDbText
 73
    2
  0
TEXT
  5
B6
100
AcDbEntity
  8
Texts
  6
ByLayer
 62
  256
370
   -1
100
AcDbText
 10
1083.499969482422
 20
749.9521400451661
 30
0
 40
12
  1
8'5'' x 10'9''
 50
0
 41
1
 51
0
  7
standard
 71
    0
 72
    1
 11
1083.499969482422
 21
749.9521400451661
 31
0
210
0
220
0
230
1
100
AcDbText
 73
    2
  0
TEXT
  5
B7
100
AcDbEntity
  8
Texts
  6
ByLayer
 62
  256
370
   -1
100
AcDbText
 10
817.5
 20
795.3521339416504
 30
0
 40
12
  1
8'7'' x 7'11''
 50
0
 41
1
 51
0
  7
standard
 71
    0
 72
    1
 11
817.5
 21
795.3521339416504
 31
0
210
0
220
0
230
1
100
AcDbText
 73
    2
  0
TEXT
  5
B8
100
AcDbEntity
  8
Texts
  6
ByLayer
 62
  256
370
   -1
100
AcDbText
 10
590.2771606445312
 20
997.5447551727295
 30
0
 40
14.85714285714286
  1
Bathroom
 50
0
 41
1
 51
0
  7
standard
 71
    0
 72
    1
 11
590.2771606445312
 21
997.5447551727295
 31
0
210
0
220
0
230
1
100
AcDbText
 73
    2
  0
TEXT
  5
B9
100
AcDbEntity
  8
Texts
  6
ByLayer
 62
  256
370
   -1
100
AcDbText
 10
590.2771606445312
 20
963.1496002197266
 30
0
 40
12
  1
5'3'' x 7'10''
 50
0
 41
1
 51
0
  7
standard
 71
    0
 72
    1
 11
590.2771606445312
 21
963.1496002197266
 31
0
210
0
220
0
230
1
100
AcDbText
 73
    2
  0
TEXT
  5
BA
100
AcDbEntity
  8
Texts
  6
ByLayer
 62
  256
370
   -1
100
AcDbText
 10
397.3671569824219
 20
687.6903430938721
 30
0
 40
14.85714285714286
  1
Kitchen
 50
0
 41
1
 51
0
  7
standard
 71
    0
 72
    1
 11
397.3671569824219
 21
687.6903430938721
 31
0
210
0
220
0
230
1
100
AcDbText
 73
    2
  0
TEXT
  5
BB
100
AcDbEntity
  8
Texts
  6
ByLayer
 62
  256
370
   -1
100
AcDbText
 10
397.3671569824219
 20
653.2951881408692
 30
0
 40
12
  1
7'8'' x 13'1''
 50
0
 41
1
 51
0
  7
standard
 71
    0
 72
    1
 11
397.3671569824219
 21
653.2951881408692
 31
0
210
0
220
0
230
1
100
AcDbText
 73
    2
  0
TEXT
  5
BC
100
AcDbEntity
  8
Texts
  6
ByLayer
 62
  256
370
   -1
100
AcDbText
 10
187.9000015258789
 20
774.1972934722901
 30
0
 40
14.85714285714286
  1
Sunroom
 50
0
 41
1
 51
0
  7
standard
 71
    0
 72
    1
 11
187.9000015258789
 21
774.1972934722901
 31
0
210
0
220
0
230
1
100
AcDbText
 73
    2
  0
TEXT
  5
BD
100
AcDbEntity
  8
Texts
  6
ByLayer
 62
  256
370
   -1
100
AcDbText
 10
187.9000015258789
 20
739.8021385192872
 30
0
 40
12
  1
4'1'' x 8'0''
 50
0
 41
1
 51
0
  7
standard
 71
    0
 72
    1
 11
187.9000015258789
 21
739.8021385192872
 31
0
210
0
220
0
230
1
100
AcDbText
 73
    2
  0
ENDSEC
  0
SECTION
  2
OBJECTS
  0
DICTIONARY
  5
C
330
0
100
AcDbDictionary
281
    1
  3
ACAD_GROUP
350
D
  0
DICTIONARY
  5
D
330
C
100
AcDbDictionary
281
    1
  0
ENDSEC
  0
EOF
